<svg
  version="1.1"
  xmlns="http://www.w3.org/2000/svg"
  xmlns:xlink="http://www.w3.org/1999/xlink"
  x="0px"
  y="0px"
  width="400px"
  height="400px"
  viewBox="0 0 400 400">
  <rect fill="none" width="400" height="400"/>
  <g>
    <g>

      <circle
        opacity="0.1"
        fill="none"
        stroke="#000000"
        stroke-miterlimit="1"
        stroke-width="45"
        cx="200"
        cy="200"
        r="175"/>

      <path
        class="line-fill"
        fill="none"
        stroke="#FED731"
        stroke-miterlimit="1"
        stroke-width="45"
        stroke-dasharray="1221,2442"
        stroke-dashoffset="1221"
        d="
			M200,25.0000019c96.6365662-0.0132771,174.9867249,78.3261337,175,174.9759521S296.6846313,374.9867249,200.0480652,375
			c-0.0160065,0-0.0320282,0-0.0480652,0c-96.6365662,0.0132751-174.9867096-78.3261414-175-174.9759521
			C24.9867382,103.3742065,103.3153839,25.013279,199.9519348,25.0000038C199.9679565,25,199.9839783,25,200,25.0000019"/>
    </g>
    <g>
      <path
        fill="#BB0826"
        d="M254.2158203,134.3594818c-3.9042816,0-7.8382874,0.4163055-11.7110748,1.2384491
			c-1.7614746-9.7326889-4.9520569-18.1622086-9.2534027-24.4261856C228.7453461,104.6121521,223.2352753,101,217.7357178,101
			c-11.5195312,0-17.5971985,5.0325241-23.4754791,9.8988647c-6.2578583,5.1803284-12.728241,10.5373383-28.3155823,10.5373383
			c-2.8075104,0-5.0919952,2.3046036-5.0919952,5.1374741c0,2.8319931,2.2844849,5.1357193,5.0919952,5.1357193
			c19.2309875,0,27.850296-7.1359634,34.7754669-12.8690491c5.1068726-4.2278748,9.1405792-7.5671463,17.0155945-7.5671463
			c1.9713745,0,4.7089081,2.2031479,7.1438293,5.7488251c3.8972778,5.6753616,6.5561066,12.9328995,7.9082489,21.5784531
			c-21.3108063,8.7627411-35.0404816,29.1858215-35.0404816,52.2292328c0,20.8813934,11.4311829,39.9050903,29.8732758,49.788208
			c-1.7684784,30.5816956-8.506485,62.0083008-16.8153076,62.0083008c-1.1212463,0-2.0343475-0.4285889-2.9596863-1.388916
			c-2.7865143-2.891449-7.3441162-12.1361084-6.5700989-41.5808105c0.0192566-0.7679138,0.0332489-2.4069519,0.0332489-2.4069519
			c0.0061188-5.3351288,0.0166168-14.2614136-1.8078308-22.0332336
			c-3.2990417-14.0532684-10.942276-17.0033417-16.7742004-17.0033417c-5.8327789,0-13.4777679,2.9483185-16.7759399,16.9981079
			c-1.8226929,7.7613068-1.8139496,16.6945953-1.8087006,22.0297394c0,0,0.0131226,1.6477661,0.0332336,2.4139404
			c0.7731628,29.4464417-3.7861938,38.6911011-6.5727081,41.58255c-0.924469,0.9603271-1.8375702,1.388916-2.9596863,1.388916
			c-7.2164307,0-16.036026-28.6785583-17.1529083-69.8308411c-0.1766815-6.3146973,0.8151398-13.6133423,1.6914978-20.0644836
			c1.1308746-8.3236847,1.6687622-12.8095856,0.5413818-15.868103c-9.093338-24.6221008-12.7063675-60.1103668,0.8483734-79.8442612
			c2.4331818-3.5439301,5.1680908-5.7453308,7.1394653-5.7453308c5.72435,0,9.676712,1.7728424,13.8617401,3.6488876
			c5.219696,2.3404617,10.6160583,4.7596359,18.3843689,3.2614288c2.7550201-0.5335159,4.567215-3.2290726,4.0398254-6.0085907
			c-0.2562561-1.357399-1.0241699-2.5285034-2.1611786-3.2999115c-1.1221161-0.7617874-2.4690247-1.0416641-3.7993011-0.7792816
			c-4.6153412,0.8938522-7.6686096-0.4731674-12.333786-2.5634918C160.9628601,103.4078064,155.5909882,101,147.7107239,101
			c-5.4986877,0-11.0070038,3.610405-15.5095062,10.1664963c-11.32798,16.4934464-16.3552551,50.4677811-2.0807037,89.0941696
			c0.3078613,1.2541962-0.4958954,7.1648254-1.0285339,11.0822144c-0.8824921,6.4957428-1.9818802,14.5797882-1.7815933,21.7463684
			c0.0244904,0.8448792,0.6533356,20.9085083,4.0039749,40.2199554c4.6223297,26.640686,12.2533264,39.59021,23.3285522,39.59021
			c3.8753967,0,7.4237061-1.5568237,10.2618256-4.5025024c7.0336304-7.29953,10.124527-23.3311768,9.4501953-49.0115356
			l-0.0306244-2.1585388c-0.004364-4.8873596-0.0113525-13.0649872,1.5358276-19.6490784
			c2.1340637-9.0924683,5.5721588-9.0924683,6.8665771-9.0924683c1.2935638,0,4.7290344,0,6.8648376,9.0977173
			c1.5480652,6.5928345,1.5393219,14.770462,1.5340729,19.6578064l-0.0297394,2.1463013
			c-0.6752014,25.6786194,2.4148102,41.7102661,9.4475708,49.0097961c2.8389893,2.9456787,6.3872986,4.5025024,10.2618256,4.5025024
			c11.0726013,0,18.7044678-12.9495239,23.329422-39.59198c1.8104553-10.4341125,2.8215027-21.0939026,3.3637695-28.5525818
			c5.4260864,1.6879883,11.0446014,2.5433502,16.7173462,2.5433502c31.13797,0,56.4702454-25.3322754,56.4702454-56.4684906
			C310.6860657,159.6917572,285.3537903,134.3594818,254.2158203,134.3594818z M254.2158203,236.5509644
			c-5.730484,0-11.3437347-1.0652771-16.682373-3.1643372c-2.8617249-1.1282501-5.618515-2.5486298-8.1916199-4.2226257
			c-13.0544586-8.5012512-20.8472748-22.8317719-20.8472748-38.3342896c0-17.6968994,10.3991547-33.9743195,26.4937744-41.4688721
			c2.6080933-1.213974,5.329895-2.1821594,8.0919189-2.8766022c3.6401367-0.9139709,7.3869781-1.3775177,11.1355743-1.3775177
			c25.2115784,0,45.7229919,20.5114136,45.7229919,45.7229919
			C299.9388123,216.0404205,279.4273987,236.5509644,254.2158203,236.5509644z"/>
      <path
        fill="#BB0826"
        d="M257.2612,186.6613159v-14.2955475c1.4151306,0.241394,2.6973267,0.6813202,3.5631714,1.222702
			c-0.3043518,0.6174774-0.5282593,1.3644104-0.5282593,2.3763275c0,2.5337677,1.8716736,5.2266846,5.3403931,5.2266846
			c3.013916,0,5.1199951-2.3640747,5.1199951-5.7479401c0-5.5109406-5.7444763-10.0834198-13.4953003-10.8670654v-6.6706848
			h-6.1292725v6.8980713c-4.3485718,0.7985229-7.9047394,3.014801-10.0685425,6.2945862
			c-1.4745941,2.2337646-2.2547455,4.8987122-2.2547455,7.7053528c0,1.0189209,0.0839539,2.0028534,0.2501373,2.9264374
			c1.0810242,5.955246,5.4138489,8.9455414,12.0731506,11.7180786v15.6765594
			c-1.7229767-0.3253632-3.2220764-0.8964844-4.2908478-1.6337891c0.467041-0.928833,0.6804504-1.8786621,0.6804504-2.9894257
			c0-2.4069366-2.0133514-5.0045319-5.266922-5.0045319c-3.1013794,0-5.2686615,2.489151-5.2686615,6.0523224
			c0,5.4846954,6.1502686,10.4061432,14.1459808,11.4434357v6.7607574H257.2612v-6.7397766
			c8.6236877-1.0818939,14.1459961-6.8866882,14.1459961-14.9759827
			C271.407196,193.0477448,265.0557556,189.68573,257.2612,186.6613159z M263.063385,202.5600281
			c0,3.4494629-2.0990601,5.8109283-5.8021851,6.5919495v-13.2118988
			C261.3631592,197.8563538,263.063385,199.8251038,263.063385,202.5600281z M247.2294159,178.2825165
			c0-2.5967255,1.4063721-4.5549622,3.9025116-5.5039215v11.1329498
			C248.3786469,182.2996216,247.2294159,180.607254,247.2294159,178.2825165z"/>
    </g>
  </g>
</svg>
