<svg xmlns="http://www.w3.org/2000/svg" xmlns:xlink="http://www.w3.org/1999/xlink" viewBox="0 0 5 5" version="1.1" shape-rendering="crispEdges">
  <path d="M0 0h5v5H0V0z" fill="#ffffff"/>
  <path d="M1 0h3v1H1V0z" fill="#4db6ac"/>
  <path d="M2 1h1v1H2V1z" fill="#4db6ac"/>
  <path d="M0 2h1v1H0V2zm2 0h1v1H2V2zm2 0h1v1H4V2z" fill-rule="evenodd" fill="#4db6ac"/>
  <path d="M0 3h1v1H0V3zm4 0h1v1H4V3z" fill-rule="evenodd" fill="#4db6ac"/>
  <path d="M0 4h2v1H0V4zm3 0h2v1H3V4z" fill-rule="evenodd" fill="#4db6ac"/>
</svg>
